<svg width="848" height="710" viewBox="0 0 848 710" fill="none" xmlns="http://www.w3.org/2000/svg">
<rect width="848" height="710" fill="white"/>
<rect x="127" y="190" width="66" height="67" fill="#0C0C0F"/>
<rect x="193" y="190" width="66" height="67" fill="#847979"/>
<rect x="259" y="190" width="66" height="67" fill="#B7B5E4"/>
<rect x="325" y="190" width="66" height="67" fill="#BBC2E2"/>
<rect x="391" y="190" width="66" height="67" fill="#CFCCD6"/>
<path d="M154.425 394V321.213H131.289V305.616H193.158V321.213H170.022V394H154.425ZM208.624 394V305.616H224.092V394H208.624ZM262.697 394V321.213H239.561V305.616H301.43V321.213H278.294V394H262.697ZM316.896 394V305.616H332.363V379.313H367.457V394H316.896ZM385.058 394V305.616H439.128V320.303H400.525V338.37H437.049V353.057H400.525V379.313H439.128V394H385.058ZM486.094 394V305.616H501.562V340.71H536.136V305.616H551.603V394H536.136V356.047H501.562V394H486.094ZM575.75 394V381.392H600.186V330.311H579.519V319.913C598.626 318.613 602.265 312.115 603.955 305.616H615.653V381.392H638.139V394H575.75Z" fill="black"/>
<path d="M149.745 477V437.867H137.306V429.482H170.569V437.867H158.13V477H149.745ZM177.067 428.783H185.034V437.168H177.067V428.783ZM177.067 442.06H185.034V477H177.067V442.06ZM194.843 429.482H202.53V442.06H207.421V449.747H202.53V467.776C202.53 469.872 203.927 470.431 205.325 470.431C206.583 470.431 207.421 470.152 207.91 469.872V476.86C207.282 477.07 205.604 477.699 202.39 477.699C197.079 477.699 194.843 474.484 194.843 471.13V449.747H190.65V442.06H194.843V429.482ZM214.191 429.482H222.157V477H214.191V429.482ZM228.822 459.81C228.822 450.376 235.251 441.361 245.034 441.361C254.817 441.361 260.897 448.349 261.386 461.347H236.579C237.208 467.426 240.841 470.012 245.523 470.012C250.904 470.012 252.581 466.658 253.28 465.12H260.967C260.548 469.872 256.075 477.699 245.593 477.699C235.391 477.699 228.822 469.313 228.822 459.81ZM245.314 447.65C241.61 447.65 238.396 449.677 237.138 454.359H253.14C252.651 450.096 249.786 447.65 245.314 447.65ZM293.053 477V437.867H280.615V429.482H313.878V437.867H301.439V477H293.053ZM310.235 459.81C310.235 450.376 316.664 441.361 326.447 441.361C336.23 441.361 342.31 448.349 342.799 461.347H317.992C318.621 467.426 322.254 470.012 326.936 470.012C332.317 470.012 333.994 466.658 334.693 465.12H342.38C341.961 469.872 337.488 477.699 327.006 477.699C316.804 477.699 310.235 469.313 310.235 459.81ZM326.727 447.65C323.023 447.65 319.809 449.677 318.551 454.359H334.553C334.064 450.096 331.199 447.65 326.727 447.65ZM343.974 477L356.482 459.53L343.974 442.06H352.779L360.885 453.381L368.991 442.06H377.796L365.287 459.53L377.796 477H368.991L360.885 465.679L352.779 477H343.974ZM384.079 429.482H391.765V442.06H396.657V449.747H391.765V467.776C391.765 469.872 393.163 470.431 394.561 470.431C395.818 470.431 396.657 470.152 397.146 469.872V476.86C396.517 477.07 394.84 477.699 391.626 477.699C386.315 477.699 384.079 474.484 384.079 471.13V449.747H379.886V442.06H384.079V429.482ZM447.502 477H439.535V453.94C439.535 450.026 436.88 447.93 433.456 447.93C427.796 447.93 426.468 453.94 426.468 458.132V477H418.781V429.482H426.188V444.855C427.446 443.597 430.661 441.361 436.251 441.361C442.331 441.361 447.502 444.576 447.502 452.262V477ZM457.379 477V470.012L473.172 455.966C478.483 451.284 481.767 448.349 481.767 443.737C481.767 439.964 479.181 436.47 473.801 436.47C468.35 436.47 465.555 440.173 465.485 447.021H457.099C456.4 435.491 464.017 428.783 474.43 428.783C484.842 428.783 490.292 435.421 490.292 442.759C490.292 450.585 485.89 455.826 480.09 460.508L470.027 468.614H490.502V477H457.379Z" fill="black"/>
<path d="M141.262 523V511.688H137.667V509.264H147.282V511.688H143.686V523H141.262ZM146.229 518.031C146.229 515.304 148.087 512.698 150.915 512.698C153.743 512.698 155.501 514.718 155.642 518.475H148.471C148.653 520.233 149.703 520.98 151.057 520.98C152.612 520.98 153.097 520.01 153.299 519.566H155.521C155.4 520.94 154.107 523.202 151.077 523.202C148.128 523.202 146.229 520.778 146.229 518.031ZM150.996 514.516C149.925 514.516 148.996 515.102 148.633 516.455H153.258C153.117 515.223 152.289 514.516 150.996 514.516ZM155.982 523L159.597 517.95L155.982 512.9H158.527L160.87 516.172L163.213 512.9H165.758L162.143 517.95L165.758 523H163.213L160.87 519.728L158.527 523H155.982ZM167.575 509.264H169.797V512.9H171.211V515.122H169.797V520.334C169.797 520.94 170.201 521.101 170.605 521.101C170.968 521.101 171.211 521.02 171.352 520.94V522.96C171.17 523.02 170.685 523.202 169.756 523.202C168.221 523.202 167.575 522.273 167.575 521.303V515.122H166.363V512.9H167.575V509.264ZM185.908 523H183.605V516.334C183.605 515.203 182.838 514.597 181.848 514.597C180.212 514.597 179.828 516.334 179.828 517.546V523H177.606V509.264H179.747V513.708C180.111 513.344 181.04 512.698 182.656 512.698C184.413 512.698 185.908 513.627 185.908 515.849V523ZM189.066 523V521.041H192.864V513.102H189.652V511.486C192.621 511.284 193.187 510.274 193.45 509.264H195.268V521.041H198.762V523H189.066Z" fill="black"/>
</svg>
